<svg viewBox="-0.0009999275207519531 2 37 32" version="1.1" id="svg4"
   sodipodi:docname="logo-wiso-steuer.svg" inkscape:version="1.3 (0e150ed, 2023-07-21)"
   xmlns:inkscape="http://www.inkscape.org/namespaces/inkscape"
   xmlns:sodipodi="http://sodipodi.sourceforge.net/DTD/sodipodi-0.dtd"
   xmlns="http://www.w3.org/2000/svg" xmlns:svg="http://www.w3.org/2000/svg">
   <sodipodi:namedview id="namedview4" pagecolor="#ffffff" bordercolor="#000000"
      borderopacity="0.25" inkscape:showpageshadow="2" inkscape:pageopacity="0.0"
      inkscape:pagecheckerboard="0" inkscape:deskcolor="#d1d1d1" inkscape:zoom="3.6600985"
      inkscape:cx="101.5" inkscape:cy="15.983176" inkscape:window-width="2072"
      inkscape:window-height="1008" inkscape:window-x="2525" inkscape:window-y="580"
      inkscape:window-maximized="0" inkscape:current-layer="svg4"></sodipodi:namedview>
   <defs id="defs1">
      <style id="style1">.b {
         fill: #023e84
         }</style>
   </defs>
   <path
      d="m 28.305,34 a 1.2,1.2 0 0 1 -1.186,-1.18 v -4.989 a 1.207,1.207 0 0 1 1.186,-1.192 h 7.51 a 1.2,1.2 0 0 1 1.184,1.192 V 32.82 A 1.2,1.2 0 0 1 35.815,34 Z M 1.184,34 a 1.2,1.2 0 0 1 -1.185,-1.18 v -4.989 a 1.205,1.205 0 0 1 1.185,-1.192 h 19.815 a 1.207,1.207 0 0 1 1.186,1.192 V 32.82 A 1.2,1.2 0 0 1 20.999,34 Z"
      style="fill:#fa7d19" id="path1"></path>
   <path
      d="M 1.185,21.7 A 1.2,1.2 0 0 1 0,20.52 v -4.988 a 1.2,1.2 0 0 1 1.185,-1.18 h 19.814 a 1.2,1.2 0 0 1 1.186,1.18 v 4.988 a 1.2,1.2 0 0 1 -1.186,1.18 z m 0,-12.287 A 1.2,1.2 0 0 1 0,8.225 V 3.192 A 1.205,1.205 0 0 1 1.185,2 h 34.581 a 1.207,1.207 0 0 1 1.186,1.192 v 5.033 a 1.206,1.206 0 0 1 -1.186,1.188 z"
      class="b" id="path2"></path>
</svg>